# xmcd CD database file
#
# Track frame offsets:
#	150
#	13739
#	33633
#	52301
#	65373
#	80477
#	106851
#	122225
#	139970
#	162036
#
# Disc length: 2466 seconds
#
# Revision: 1
# Processed by: cddbd v1.5.1PL2 Copyright (c) Steve Scherf et al.
# Submitted via: CDex 1.50
#
DISCID=8a09a00a
DTITLE=Viaggio nella  Musica del Nuovo Oriente - Viaggio nella  Musica
DYEAR=1900
DGENRE=New Age
TTITLE0=Badjirgal 's Wish
TTITLE1=Murali Krishna
TTITLE2=Govinda
TTITLE3=The Calling
TTITLE4=Daughter's Red
TTITLE5=Eastern Girl
TTITLE6=Bliss
TTITLE7=Amis love Song
TTITLE8=Ghoom Charakhana
TTITLE9=Mermaid
EXTD=
EXTT0=
EXTT1=
EXTT2=
EXTT3=
EXTT4=
EXTT5=
EXTT6=
EXTT7=
EXTT8=
EXTT9=
PLAYORDER=
